<?xml version="1.0" encoding="utf-8"?>

<!DOCTYPE svg PUBLIC "-//W3C//DTD SVG 1.1//EN" "http://www.w3.org/Graphics/SVG/1.1/DTD/svg11.dtd">
<svg version="1.1" id="Layer_1" xmlns="http://www.w3.org/2000/svg" xmlns:xlink="http://www.w3.org/1999/xlink" x="0px" y="0px"
	 viewBox="0 0 2560 1600" style="enable-background:new 0 0 2560 1600;" xml:space="preserve">
<style type="text/css">
	.st0{fill:none;}
	.st1{fill:url(#New_Pattern);}
</style>
<pattern  width="153" height="261" patternUnits="userSpaceOnUse" id="New_Pattern" viewBox="67.047 -341 153 261" style="overflow:visible;">
	<g>
		<rect x="67.047" y="-341" class="st0" width="153" height="261"/>
		<g>
			<g>
				<polygon points="214.886,-77.419 208.096,-81.339 208.096,-73.499 208.096,-57.669 208.096,-11.761 160.287,-39.363 
					160.287,-31.523 214.886,0 				"/>
				<polygon points="154.629,-52.864 154.629,-104.368 202.437,-76.766 202.437,-84.606 147.839,-116.129 147.839,-38.71 
					154.629,-34.79 154.629,-42.63 				"/>
			</g>
			<g>
				<polygon points="287.094,-121.29 280.304,-125.21 273.514,-121.29 259.805,-113.375 220.047,-90.421 172.238,-118.024 
					165.448,-114.103 220.047,-82.581 				"/>
				<polygon points="175.443,-126.408 220.047,-152.16 267.856,-124.557 274.646,-128.477 220.047,-160 153,-121.29 159.79,-117.37 
					166.58,-121.29 				"/>
			</g>
		</g>
		<g>
			<g>
				<polygon points="139.256,-116.129 132.466,-112.209 132.466,-104.368 132.466,-88.538 132.466,-42.63 84.657,-15.027 
					84.657,-7.187 139.256,-38.71 				"/>
				<polygon points="78.998,-21.995 78.998,-73.499 126.807,-101.101 126.807,-108.942 72.208,-77.419 72.208,0 78.998,-3.92 
					78.998,-11.761 				"/>
			</g>
			<g>
				<polygon points="134.094,-121.29 127.304,-125.21 120.514,-121.29 106.805,-113.375 67.047,-90.421 19.238,-118.024 
					12.448,-114.103 67.047,-82.581 				"/>
				<polygon points="22.443,-126.408 67.047,-152.16 114.856,-124.557 121.646,-128.477 67.047,-160 0,-121.29 6.79,-117.37 
					13.58,-121.29 				"/>
			</g>
		</g>
		<g>
			<g>
				<polygon points="138.386,-207.919 131.596,-211.839 131.596,-203.999 131.596,-188.169 131.596,-142.261 83.787,-169.863 
					83.787,-162.023 138.386,-130.5 				"/>
				<polygon points="78.129,-183.365 78.129,-234.868 125.937,-207.266 125.937,-215.106 71.339,-246.629 71.339,-169.21 
					78.129,-165.29 78.129,-173.13 				"/>
			</g>
			<g>
				<polygon points="215.756,-246.629 208.966,-242.709 208.966,-234.868 208.966,-219.038 208.966,-173.13 161.157,-145.527 
					161.157,-137.687 215.756,-169.21 				"/>
				<polygon points="155.498,-152.495 155.498,-203.999 203.307,-231.602 203.307,-239.442 148.708,-207.919 148.708,-130.5 
					155.498,-134.42 155.498,-142.261 				"/>
			</g>
			<g>
				<polygon points="210.594,-251.79 203.804,-255.71 197.014,-251.79 183.305,-243.875 143.547,-220.921 95.738,-248.524 
					88.948,-244.603 143.547,-213.081 				"/>
				<polygon points="98.943,-256.908 143.547,-282.66 191.356,-255.057 198.146,-258.977 143.547,-290.5 76.5,-251.79 
					83.29,-247.87 90.08,-251.79 				"/>
			</g>
		</g>
		<g>
			<g>
				<polygon points="214.886,-338.419 208.096,-342.339 208.096,-334.499 208.096,-318.669 208.096,-272.761 160.287,-300.363 
					160.287,-292.523 214.886,-261 				"/>
				<polygon points="154.629,-313.865 154.629,-365.368 202.437,-337.766 202.437,-345.606 147.839,-377.129 147.839,-299.71 
					154.629,-295.79 154.629,-303.63 				"/>
			</g>
		</g>
		<g>
			<g>
				<polygon points="139.256,-377.129 132.466,-373.209 132.466,-365.368 132.466,-349.538 132.466,-303.63 84.657,-276.027 
					84.657,-268.187 139.256,-299.71 				"/>
				<polygon points="78.998,-282.995 78.998,-334.499 126.807,-362.102 126.807,-369.942 72.208,-338.419 72.208,-261 
					78.998,-264.92 78.998,-272.761 				"/>
			</g>
		</g>
	</g>
</pattern>
<rect class="st1" width="2560" height="1600"/>
</svg>
